<svg width="261" height="205" viewBox="0 0 261 205" fill="none" xmlns="http://www.w3.org/2000/svg">
<g filter="url(#filter0_d_828_3)">
<path d="M193.955 161.199C193.955 147.175 205.34 135.807 219.383 135.807H221.339C235.383 135.807 246.768 147.175 246.768 161.199C246.768 175.223 235.383 186.592 221.339 186.592H219.383C205.34 186.592 193.955 175.223 193.955 161.199Z" fill="url(#paint0_linear_828_3)"/>
<path d="M239.266 17.7234C228.953 7.42555 212.234 7.42555 201.921 17.7234L155.713 63.867L104.435 19.3036C99.6307 14.3119 92.8762 11.2054 85.3952 11.2054C70.8113 11.2054 58.9888 23.0113 58.9888 37.5746V137.76H38.4504C24.9468 137.76 14 148.691 14 162.176C14 175.66 24.9468 186.592 38.4504 186.592H80.7414C82.2521 186.86 83.8073 187 85.3952 187C87.7728 187 90.0771 186.686 92.2687 186.098C103.415 183.825 111.802 173.978 111.802 162.176C111.802 161.922 111.798 161.67 111.79 161.418C111.798 161.157 111.802 160.894 111.802 160.631V95.6193L137.001 117.519C137.464 117.921 137.937 118.305 138.419 118.669C148.741 128.847 165.37 128.807 175.642 118.549L239.266 55.015C249.578 44.7172 249.578 28.0212 239.266 17.7234Z" fill="url(#paint1_linear_828_3)"/>
</g>
<defs>
<filter id="filter0_d_828_3" x="0" y="0" width="261" height="205" filterUnits="userSpaceOnUse" color-interpolation-filters="sRGB">
<feFlood flood-opacity="0" result="BackgroundImageFix"/>
<feColorMatrix in="SourceAlpha" type="matrix" values="0 0 0 0 0 0 0 0 0 0 0 0 0 0 0 0 0 0 127 0" result="hardAlpha"/>
<feOffset dy="4"/>
<feGaussianBlur stdDeviation="7"/>
<feComposite in2="hardAlpha" operator="out"/>
<feColorMatrix type="matrix" values="0 0 0 0 0 0 0 0 0 1 0 0 0 0 0.64 0 0 0 0.53 0"/>
<feBlend mode="normal" in2="BackgroundImageFix" result="effect1_dropShadow_828_3"/>
<feBlend mode="normal" in="SourceGraphic" in2="effect1_dropShadow_828_3" result="shape"/>
</filter>
<linearGradient id="paint0_linear_828_3" x1="60.7554" y1="16.1738" x2="103.532" y2="225.498" gradientUnits="userSpaceOnUse">
<stop offset="0.0062076" stop-color="#8FFFD0"/>
<stop offset="1" stop-color="#00FF84"/>
</linearGradient>
<linearGradient id="paint1_linear_828_3" x1="60.7554" y1="16.1738" x2="103.532" y2="225.498" gradientUnits="userSpaceOnUse">
<stop offset="0.0062076" stop-color="#8FFFD0"/>
<stop offset="1" stop-color="#00FF84"/>
</linearGradient>
</defs>
</svg>
