<svg width="260" height="289" viewBox="0 0 260 289" fill="none" xmlns="http://www.w3.org/2000/svg">
<g filter="url(#filter0_d_826_82)">
<path fill-rule="evenodd" clip-rule="evenodd" d="M234.5 66.775C241.616 70.8835 246 78.4765 246 86.6936V194.081C246 202.298 241.616 209.891 234.5 213.999L141.5 267.693C134.384 271.801 125.616 271.801 118.5 267.693L25.5 213.999C18.3838 209.891 14 202.298 14 194.081V86.6936C14 78.4765 18.3838 70.8835 25.5 66.775L118.5 13.0814C125.616 8.97286 134.384 8.97286 141.5 13.0814L234.5 66.775ZM195.463 89.7862C202.58 93.8947 206.963 101.488 206.963 109.705V171.953C206.963 180.17 202.58 187.763 195.463 191.871L141.555 222.995C134.439 227.104 125.671 227.104 118.555 222.995L64.6466 191.871C57.5304 187.763 53.1466 180.17 53.1466 171.953V109.705C53.1466 101.488 57.5304 93.8947 64.6466 89.7862L118.555 58.6621C125.671 54.5536 134.439 54.5536 141.555 58.6621L195.463 89.7862ZM159.128 96.8789C164.4 91.6068 172.947 91.6068 178.219 96.8789C183.491 102.151 183.491 110.699 178.219 115.971L145.692 148.498C140.441 153.749 131.939 153.77 126.663 148.559C126.416 148.373 126.174 148.176 125.938 147.97L113.055 136.759V170.042C113.055 170.177 113.053 170.311 113.049 170.445C113.053 170.574 113.055 170.703 113.055 170.833C113.055 176.875 108.767 181.916 103.069 183.08C101.948 183.381 100.77 183.542 99.5548 183.542C98.743 183.542 97.9479 183.47 97.1756 183.333H75.5548C68.6512 183.333 63.0548 177.736 63.0548 170.833C63.0548 163.929 68.6512 158.333 75.5548 158.333H86.0548V107.042C86.0548 99.5861 92.0989 93.5419 99.5548 93.5419C103.379 93.5419 106.833 95.1323 109.289 97.6879L135.504 120.503L159.128 96.8789ZM168.055 157.333C160.875 157.333 155.055 163.153 155.055 170.333C155.055 177.513 160.875 183.333 168.055 183.333H169.055C176.234 183.333 182.055 177.513 182.055 170.333C182.055 163.153 176.234 157.333 169.055 157.333H168.055Z" fill="url(#paint0_linear_826_82)"/>
</g>
<defs>
<filter id="filter0_d_826_82" x="0" y="0" width="260" height="288.773" filterUnits="userSpaceOnUse" color-interpolation-filters="sRGB">
<feFlood flood-opacity="0" result="BackgroundImageFix"/>
<feColorMatrix in="SourceAlpha" type="matrix" values="0 0 0 0 0 0 0 0 0 0 0 0 0 0 0 0 0 0 127 0" result="hardAlpha"/>
<feOffset dy="4"/>
<feGaussianBlur stdDeviation="7"/>
<feComposite in2="hardAlpha" operator="out"/>
<feColorMatrix type="matrix" values="0 0 0 0 0 0 0 0 0 1 0 0 0 0 0.64 0 0 0 0.53 0"/>
<feBlend mode="normal" in2="BackgroundImageFix" result="effect1_dropShadow_826_82"/>
<feBlend mode="normal" in="SourceGraphic" in2="effect1_dropShadow_826_82" result="shape"/>
</filter>
<linearGradient id="paint0_linear_826_82" x1="60.5547" y1="19.0959" x2="149.564" y2="313.458" gradientUnits="userSpaceOnUse">
<stop offset="0.0062076" stop-color="#9647FD"/>
<stop offset="0.315948" stop-color="#5D9DFF"/>
<stop offset="0.643201" stop-color="#52ADFF"/>
<stop offset="1" stop-color="#1EF28C"/>
</linearGradient>
</defs>
</svg>
