<svg width="171" height="171" viewBox="0 0 171 171" fill="none" xmlns="http://www.w3.org/2000/svg">
<path fill-rule="evenodd" clip-rule="evenodd" d="M79.7969 32.9999C71.464 32.9999 70.5762 43.8813 76.2265 50.0059C84.9066 59.4146 90.2091 71.9865 90.2091 85.7968C90.2091 99.6071 84.9066 112.179 76.2265 121.588C70.5762 127.712 71.464 138.594 79.7969 138.594V138.594C108.956 138.594 132.594 114.956 132.594 85.7968C132.594 56.6379 108.956 32.9999 79.7969 32.9999V32.9999Z" fill="#808191"/>
<path d="M55.2282 34.3354L55.0801 53.225L72.9994 59.2029L54.9886 64.8993L54.8406 83.7888L43.8574 68.4199L25.8466 74.1162L37.0694 58.9213L26.0862 43.5524L44.0054 49.5303L55.2282 34.3354Z" fill="#808191"/>
</svg>
